<svg xmlns="http://www.w3.org/2000/svg" width="447" height="143" viewBox="0 0 447 143" version="1.1"><path d="M 0 71.502 L 0 143.004 223.750 142.752 L 447.500 142.500 447.757 71.250 L 448.013 0 224.007 0 L 0 0 0 71.502 M 0.474 72 C 0.474 111.325, 0.598 127.412, 0.750 107.750 C 0.901 88.088, 0.901 55.913, 0.750 36.250 C 0.598 16.587, 0.474 32.675, 0.474 72 M 52.894 39.250 C 44.861 42.688, 37.542 46.124, 36.629 46.886 C 35.144 48.124, 34.997 51.132, 35.234 75.278 L 35.500 102.285 38.314 104.386 C 40.459 105.987, 42.597 106.487, 47.314 106.493 C 53.477 106.500, 53.504 106.513, 54.500 109.882 C 55.179 112.177, 56.619 113.863, 58.984 115.132 C 60.901 116.159, 64.444 117, 66.858 117 C 69.956 117, 75.552 115.213, 85.874 110.930 C 93.918 107.591, 101.513 104.205, 102.750 103.407 C 104.990 101.960, 105 101.839, 105 75.446 C 105 53.936, 104.742 48.838, 103.631 48.412 C 102.879 48.123, 94.923 51.111, 85.953 55.051 C 72.720 60.864, 68.970 62.119, 66.072 61.706 C 64.107 61.426, 61.600 60.861, 60.500 60.451 C 58.901 59.855, 58.739 59.964, 59.691 60.994 C 60.346 61.703, 63.046 62.480, 65.691 62.722 C 69.902 63.108, 72.421 62.344, 85.946 56.581 C 94.441 52.962, 101.761 50, 102.212 50 C 102.664 50, 102.913 61.718, 102.767 76.040 L 102.500 102.080 86.500 109.106 C 72.522 115.245, 69.907 116.080, 65.807 115.719 C 63.226 115.491, 59.963 114.551, 58.557 113.629 L 56 111.954 56 85.534 C 56 59.342, 56.019 59.100, 58.229 57.552 C 59.455 56.693, 66.854 53.293, 74.671 49.995 C 82.489 46.698, 89.136 44, 89.442 44 C 89.749 44, 90 45.575, 90 47.500 C 90 49.425, 90.477 51, 91.060 51 C 91.674 51, 91.990 49.421, 91.810 47.250 C 91.545 44.047, 91.119 43.456, 88.886 43.197 C 87.265 43.009, 85.849 41.964, 85.158 40.447 C 84.545 39.101, 83.681 38, 83.239 38 C 82.797 38, 76.824 40.423, 69.967 43.385 C 63.110 46.346, 55.437 49.466, 52.915 50.317 C 49.535 51.457, 47.302 51.625, 44.415 50.956 C 42.262 50.456, 40.050 50.053, 39.500 50.059 C 38.950 50.066, 39.625 50.714, 41 51.500 C 42.375 52.286, 45.300 52.929, 47.500 52.929 C 50.272 52.929, 56.258 50.823, 67 46.068 C 75.525 42.294, 82.838 39.411, 83.250 39.662 C 83.662 39.913, 84 41.172, 84 42.461 C 84 44.102, 83.176 45.111, 81.250 45.828 C 79.737 46.391, 73.775 48.919, 68 51.446 C 62.225 53.972, 56.712 56.980, 55.750 58.131 C 54.198 59.985, 54 62.745, 54 82.494 L 54 104.767 51.250 105.306 C 49.737 105.602, 46.392 105.399, 43.815 104.854 C 41.239 104.308, 38.644 103.276, 38.049 102.559 C 37.317 101.677, 37.053 92.569, 37.233 74.418 L 37.500 47.581 52.893 40.791 C 61.359 37.056, 68.869 34, 69.583 34 C 70.297 34, 71.059 35.460, 71.279 37.250 C 71.677 40.488, 71.679 40.487, 71.589 37 C 71.520 34.286, 71.051 33.444, 69.500 33.250 C 68.400 33.113, 60.928 35.813, 52.894 39.250 M 159.200 56.200 C 158.540 56.860, 158 58.220, 158 59.221 C 158 60.223, 159.112 61.549, 160.470 62.168 C 162.359 63.029, 163.301 62.995, 164.470 62.025 C 165.312 61.326, 166 60, 166 59.078 C 166 58.155, 165.460 56.860, 164.800 56.200 C 164.140 55.540, 162.880 55, 162 55 C 161.120 55, 159.860 55.540, 159.200 56.200 M 280.350 55.765 C 279.717 56.169, 279.102 57.175, 278.981 58 C 278.861 58.825, 278.816 60.091, 278.882 60.813 C 278.959 61.676, 280.114 62.019, 282.242 61.813 C 284.508 61.594, 285.594 60.918, 285.851 59.566 C 286.052 58.502, 285.408 57.040, 284.418 56.316 C 283.428 55.592, 282.366 55.007, 282.059 55.015 C 281.751 55.024, 280.982 55.361, 280.350 55.765 M 325.040 56.452 C 324.377 57.251, 323.991 58.713, 324.181 59.702 C 324.435 61.021, 325.452 61.500, 328 61.500 C 330.638 61.500, 331.562 61.035, 331.845 59.566 C 332.050 58.502, 331.408 57.040, 330.418 56.316 C 329.428 55.592, 328.084 55, 327.431 55 C 326.779 55, 325.703 55.653, 325.040 56.452 M 219.816 64.677 C 218.890 64.921, 217.842 66.444, 217.487 68.061 C 217.025 70.163, 216.223 71.028, 214.671 71.100 C 212.699 71.190, 212.730 71.264, 215 71.902 C 217.467 72.595, 217.495 72.724, 217.142 81.666 C 216.921 87.242, 217.223 91.549, 217.927 92.863 C 218.782 94.461, 220.014 95, 222.813 95 C 224.871 95, 227.555 94.299, 228.777 93.443 C 230 92.587, 231 91.152, 231 90.255 C 231 88.919, 230.636 89.014, 228.993 90.777 C 227.845 92.009, 226.332 92.681, 225.458 92.346 C 224.206 91.865, 223.982 90.025, 224.215 82.137 L 224.500 72.515 227.500 71.876 L 230.500 71.237 227.250 71.118 C 224.225 71.008, 224 70.758, 224 67.500 C 224 65.305, 223.534 64.043, 222.750 64.116 C 222.063 64.180, 220.742 64.432, 219.816 64.677 M 302.750 64.716 C 300.487 65.059, 300 65.640, 300 67.997 C 300 70.172, 299.459 70.965, 297.750 71.294 L 295.500 71.728 297.750 71.864 C 299.929 71.996, 300 72.326, 300 82.300 C 300 88.978, 300.422 93.022, 301.200 93.800 C 301.860 94.460, 304.010 95, 305.977 95 C 307.945 95, 310.555 94.299, 311.777 93.443 C 313 92.587, 314 91.159, 314 90.269 C 314 88.961, 313.536 89.087, 311.574 90.930 C 310.240 92.184, 308.665 92.911, 308.074 92.546 C 307.426 92.145, 307 87.965, 307 82.007 L 307 72.133 309.750 71.716 L 312.500 71.300 309.750 71.150 C 307.302 71.016, 307 70.615, 307 67.500 C 307 65.575, 306.663 64.067, 306.250 64.150 C 305.837 64.232, 304.262 64.487, 302.750 64.716 M 132.030 71.279 C 130.672 71.967, 128.534 74.052, 127.280 75.912 C 125.777 78.142, 125 80.774, 125 83.632 C 125 86.980, 125.645 88.691, 127.832 91.138 C 130.205 93.794, 131.550 94.381, 136.128 94.761 C 140.958 95.161, 141.965 94.901, 144.796 92.518 C 146.655 90.954, 147.975 88.915, 147.941 87.661 C 147.885 85.583, 147.836 85.574, 146.691 87.412 C 146.036 88.464, 144.713 90.151, 143.750 91.162 C 142.626 92.343, 140.582 93, 138.035 93 C 135.139 93, 133.791 92.479, 133.035 91.066 C 132.466 90.002, 132 87.302, 132 85.066 C 132 81.540, 132.299 80.989, 134.250 80.918 C 135.488 80.873, 139.088 80.905, 142.250 80.989 C 147.503 81.128, 148 80.957, 148 79.005 C 148 77.830, 147.537 76.003, 146.970 74.945 C 146.404 73.886, 144.626 72.341, 143.020 71.510 C 141.414 70.680, 138.839 70.007, 137.300 70.015 C 135.760 70.023, 133.389 70.592, 132.030 71.279 M 193.500 70.790 C 192.400 71.015, 190.488 72.133, 189.250 73.274 L 187 75.349 187 73.174 C 187 71.205, 186.480 71, 181.500 71 C 178.475 71, 176 71.450, 176 72 C 176 72.550, 176.855 73, 177.899 73 C 179.416 73, 179.869 73.866, 180.149 77.299 C 180.342 79.663, 180.346 84.163, 180.157 87.299 C 179.913 91.371, 179.413 93, 178.407 93 C 177.633 93, 177 93.450, 177 94 C 177 94.571, 180 95, 184 95 C 188 95, 191 94.571, 191 94 C 191 93.450, 190.100 93, 189 93 C 187.213 93, 187 92.334, 187.002 86.750 C 187.003 82.804, 187.648 79.210, 188.752 77 C 189.886 74.729, 191.338 73.381, 192.887 73.163 C 194.200 72.977, 195.655 73.427, 196.122 74.163 C 196.588 74.898, 196.976 78.726, 196.985 82.668 C 196.993 86.611, 196.727 90.548, 196.393 91.418 C 196.059 92.288, 195.159 93, 194.393 93 C 193.627 93, 193 93.450, 193 94 C 193 94.571, 196 95, 200 95 C 204 95, 207 94.571, 207 94 C 207 93.450, 206.100 93, 205 93 C 203.134 93, 203 92.333, 203 83.059 C 203 77.301, 202.565 72.849, 201.967 72.480 C 201.400 72.129, 199.712 71.513, 198.217 71.111 C 196.723 70.709, 194.600 70.564, 193.500 70.790 M 349.401 71.375 C 347.696 72.146, 345.333 74.343, 344.151 76.256 C 342.968 78.170, 342 81.205, 342 83 C 342 84.795, 342.909 87.734, 344.019 89.531 C 345.231 91.491, 347.659 93.447, 350.089 94.419 C 353.254 95.685, 354.958 95.819, 357.885 95.031 C 359.945 94.476, 362.558 93.005, 363.692 91.761 C 364.826 90.518, 366.303 87.786, 366.974 85.691 C 367.913 82.761, 367.924 81.231, 367.024 79.059 C 366.381 77.506, 364.588 75.021, 363.039 73.537 C 361.286 71.858, 358.765 70.676, 356.362 70.407 C 354.235 70.168, 351.107 70.604, 349.401 71.375 M 391.500 70.790 C 390.400 71.015, 388.488 72.133, 387.250 73.274 L 385 75.349 385 73.174 C 385 71.205, 384.480 71, 379.500 71 C 376.475 71, 374 71.450, 374 72 C 374 72.550, 374.900 73, 376 73 C 377.867 73, 378 73.667, 378 83 C 378 92.333, 377.867 93, 376 93 C 374.900 93, 374 93.450, 374 94 C 374 94.578, 377.167 95, 381.500 95 C 385.833 95, 389 94.578, 389 94 C 389 93.450, 388.100 93, 387 93 C 385.213 93, 385 92.334, 385.002 86.750 C 385.003 82.804, 385.648 79.210, 386.752 77 C 388.051 74.400, 389.143 73.500, 391 73.500 C 393.476 73.500, 393.503 73.593, 393.786 83.250 C 394.023 91.312, 393.817 93, 392.595 93 C 391.783 93, 390.840 93.450, 390.500 94 C 390.109 94.633, 392.656 95, 397.441 95 C 401.814 95, 405 94.578, 405 94 C 405 93.450, 404.100 93, 403 93 C 401.145 93, 400.999 92.328, 400.985 83.750 C 400.976 78.662, 400.607 73.929, 400.164 73.232 C 399.722 72.534, 398.041 71.607, 396.430 71.172 C 394.818 70.736, 392.600 70.564, 391.500 70.790 M 154.500 72 C 154.840 72.550, 155.991 73, 157.059 73 C 158.851 73, 159 73.768, 159 83 C 159 92.333, 158.867 93, 157 93 C 155.900 93, 155 93.450, 155 94 C 155 94.578, 158.167 95, 162.500 95 C 166.833 95, 170 94.578, 170 94 C 170 93.450, 169.100 93, 168 93 C 166.121 93, 166 92.333, 166 82 L 166 71 159.941 71 C 156.156 71, 154.114 71.375, 154.500 72 M 239.750 71.706 C 241.894 72.119, 242 72.585, 242 81.570 C 242 89.839, 242.260 91.260, 244.116 93.116 C 245.801 94.801, 247.040 95.124, 250.194 94.701 C 252.373 94.409, 255.020 93.387, 256.078 92.430 C 257.918 90.765, 258 90.782, 258 92.845 C 258 94.794, 258.479 94.979, 263 94.783 C 265.750 94.663, 268 94.213, 268 93.783 C 268 93.352, 267.100 93, 266 93 C 264.121 93, 264 92.333, 264 82 L 264 71 258.250 71.100 C 254.252 71.169, 253.262 71.410, 255 71.890 C 257.221 72.504, 257.535 73.190, 257.813 78.041 C 257.985 81.043, 257.854 84.948, 257.523 86.718 C 257.192 88.488, 256.232 90.625, 255.389 91.468 C 254.547 92.311, 252.817 93, 251.545 93 C 249.993 93, 249.035 92.261, 248.630 90.750 C 248.299 89.513, 248.021 84.563, 248.014 79.750 L 248 71 242.750 71.136 C 239.863 71.211, 238.512 71.467, 239.750 71.706 M 276.750 71.706 C 278.912 72.122, 279 72.548, 279 82.570 C 279 92.333, 278.872 93, 277 93 C 275.900 93, 275 93.460, 275 94.021 C 275 94.639, 277.967 94.985, 282.500 94.897 C 286.625 94.818, 290 94.358, 290 93.876 C 290 93.394, 289.100 93, 288 93 C 286.121 93, 286 92.333, 286 82 L 286 71 280.250 71.136 C 277.087 71.211, 275.512 71.467, 276.750 71.706 M 322 71.893 C 324.432 72.567, 324.508 72.862, 324.785 82.793 C 325.056 92.485, 324.967 93, 323.035 93 C 321.916 93, 321 93.450, 321 94 C 321 94.571, 323.980 95, 327.941 95 C 331.759 95, 335.160 94.550, 335.500 94 C 335.847 93.439, 335.060 93, 333.706 93 C 331.503 93, 331.291 92.591, 331.248 88.250 C 331.222 85.638, 331.156 80.688, 331.100 77.250 L 331 71 325.250 71.100 C 321.242 71.169, 320.257 71.409, 322 71.893 M 132.989 74.020 C 132.361 75.195, 132.092 76.796, 132.392 77.578 C 132.740 78.487, 134.415 79, 137.032 79 C 141.049 79, 141.121 78.939, 140.813 75.750 C 140.539 72.908, 140.100 72.461, 137.316 72.192 C 134.898 71.957, 133.858 72.396, 132.989 74.020 M 350.398 73.165 C 350.002 73.805, 349.504 77.518, 349.290 81.415 C 349.036 86.057, 349.358 89.362, 350.224 91 C 351.015 92.495, 352.592 93.622, 354.147 93.804 C 355.579 93.972, 357.480 93.377, 358.374 92.483 C 359.586 91.271, 360 88.949, 360 83.363 C 360 79.241, 359.534 74.998, 358.965 73.934 C 358.252 72.603, 356.868 72, 354.524 72 C 352.651 72, 350.794 72.524, 350.398 73.165" stroke="none" fill="#ffffff" fill-rule="evenodd"/><path d="M 52.894 39.250 C 44.861 42.688, 37.542 46.124, 36.629 46.886 C 35.144 48.124, 34.997 51.132, 35.234 75.278 L 35.500 102.285 38.314 104.386 C 40.459 105.987, 42.597 106.487, 47.314 106.493 C 53.477 106.500, 53.504 106.513, 54.500 109.882 C 55.179 112.177, 56.619 113.863, 58.984 115.132 C 60.901 116.159, 64.444 117, 66.858 117 C 69.956 117, 75.552 115.213, 85.874 110.930 C 93.918 107.591, 101.513 104.205, 102.750 103.407 C 104.990 101.960, 105 101.839, 105 75.446 C 105 53.936, 104.742 48.838, 103.631 48.412 C 102.879 48.123, 94.923 51.111, 85.953 55.051 C 72.720 60.864, 68.970 62.119, 66.072 61.706 C 64.107 61.426, 61.600 60.861, 60.500 60.451 C 58.901 59.855, 58.739 59.964, 59.691 60.994 C 60.346 61.703, 63.046 62.480, 65.691 62.722 C 69.902 63.108, 72.421 62.344, 85.946 56.581 C 94.441 52.962, 101.761 50, 102.212 50 C 102.664 50, 102.913 61.718, 102.767 76.040 L 102.500 102.080 86.500 109.106 C 72.522 115.245, 69.907 116.080, 65.807 115.719 C 63.226 115.491, 59.963 114.551, 58.557 113.629 L 56 111.954 56 85.534 C 56 59.342, 56.019 59.100, 58.229 57.552 C 59.455 56.693, 66.854 53.293, 74.671 49.995 C 82.489 46.698, 89.136 44, 89.442 44 C 89.749 44, 90 45.575, 90 47.500 C 90 49.425, 90.477 51, 91.060 51 C 91.674 51, 91.990 49.421, 91.810 47.250 C 91.545 44.047, 91.119 43.456, 88.886 43.197 C 87.265 43.009, 85.849 41.964, 85.158 40.447 C 84.545 39.101, 83.681 38, 83.239 38 C 82.797 38, 76.824 40.423, 69.967 43.385 C 63.110 46.346, 55.437 49.466, 52.915 50.317 C 49.535 51.457, 47.302 51.625, 44.415 50.956 C 42.262 50.456, 40.050 50.053, 39.500 50.059 C 38.950 50.066, 39.625 50.714, 41 51.500 C 42.375 52.286, 45.300 52.929, 47.500 52.929 C 50.272 52.929, 56.258 50.823, 67 46.068 C 75.525 42.294, 82.838 39.411, 83.250 39.662 C 83.662 39.913, 84 41.172, 84 42.461 C 84 44.102, 83.176 45.111, 81.250 45.828 C 79.737 46.391, 73.775 48.919, 68 51.446 C 62.225 53.972, 56.712 56.980, 55.750 58.131 C 54.198 59.985, 54 62.745, 54 82.494 L 54 104.767 51.250 105.306 C 49.737 105.602, 46.392 105.399, 43.815 104.854 C 41.239 104.308, 38.644 103.276, 38.049 102.559 C 37.317 101.677, 37.053 92.569, 37.233 74.418 L 37.500 47.581 52.893 40.791 C 61.359 37.056, 68.869 34, 69.583 34 C 70.297 34, 71.059 35.460, 71.279 37.250 C 71.677 40.488, 71.679 40.487, 71.589 37 C 71.520 34.286, 71.051 33.444, 69.500 33.250 C 68.400 33.113, 60.928 35.813, 52.894 39.250 M 159.200 56.200 C 158.540 56.860, 158 58.220, 158 59.221 C 158 60.223, 159.112 61.549, 160.470 62.168 C 162.359 63.029, 163.301 62.995, 164.470 62.025 C 165.312 61.326, 166 60, 166 59.078 C 166 58.155, 165.460 56.860, 164.800 56.200 C 164.140 55.540, 162.880 55, 162 55 C 161.120 55, 159.860 55.540, 159.200 56.200 M 280.350 55.765 C 279.717 56.169, 279.102 57.175, 278.981 58 C 278.861 58.825, 278.816 60.091, 278.882 60.813 C 278.959 61.676, 280.114 62.019, 282.242 61.813 C 284.508 61.594, 285.594 60.918, 285.851 59.566 C 286.052 58.502, 285.408 57.040, 284.418 56.316 C 283.428 55.592, 282.366 55.007, 282.059 55.015 C 281.751 55.024, 280.982 55.361, 280.350 55.765 M 325.040 56.452 C 324.377 57.251, 323.991 58.713, 324.181 59.702 C 324.435 61.021, 325.452 61.500, 328 61.500 C 330.638 61.500, 331.562 61.035, 331.845 59.566 C 332.050 58.502, 331.408 57.040, 330.418 56.316 C 329.428 55.592, 328.084 55, 327.431 55 C 326.779 55, 325.703 55.653, 325.040 56.452 M 219.816 64.677 C 218.890 64.921, 217.842 66.444, 217.487 68.061 C 217.025 70.163, 216.223 71.028, 214.671 71.100 C 212.699 71.190, 212.730 71.264, 215 71.902 C 217.467 72.595, 217.495 72.724, 217.142 81.666 C 216.921 87.242, 217.223 91.549, 217.927 92.863 C 218.782 94.461, 220.014 95, 222.813 95 C 224.871 95, 227.555 94.299, 228.777 93.443 C 230 92.587, 231 91.152, 231 90.255 C 231 88.919, 230.636 89.014, 228.993 90.777 C 227.845 92.009, 226.332 92.681, 225.458 92.346 C 224.206 91.865, 223.982 90.025, 224.215 82.137 L 224.500 72.515 227.500 71.876 L 230.500 71.237 227.250 71.118 C 224.225 71.008, 224 70.758, 224 67.500 C 224 65.305, 223.534 64.043, 222.750 64.116 C 222.063 64.180, 220.742 64.432, 219.816 64.677 M 302.750 64.716 C 300.487 65.059, 300 65.640, 300 67.997 C 300 70.172, 299.459 70.965, 297.750 71.294 L 295.500 71.728 297.750 71.864 C 299.929 71.996, 300 72.326, 300 82.300 C 300 88.978, 300.422 93.022, 301.200 93.800 C 301.860 94.460, 304.010 95, 305.977 95 C 307.945 95, 310.555 94.299, 311.777 93.443 C 313 92.587, 314 91.159, 314 90.269 C 314 88.961, 313.536 89.087, 311.574 90.930 C 310.240 92.184, 308.665 92.911, 308.074 92.546 C 307.426 92.145, 307 87.965, 307 82.007 L 307 72.133 309.750 71.716 L 312.500 71.300 309.750 71.150 C 307.302 71.016, 307 70.615, 307 67.500 C 307 65.575, 306.663 64.067, 306.250 64.150 C 305.837 64.232, 304.262 64.487, 302.750 64.716 M 132.030 71.279 C 130.672 71.967, 128.534 74.052, 127.280 75.912 C 125.777 78.142, 125 80.774, 125 83.632 C 125 86.980, 125.645 88.691, 127.832 91.138 C 130.205 93.794, 131.550 94.381, 136.128 94.761 C 140.958 95.161, 141.965 94.901, 144.796 92.518 C 146.655 90.954, 147.975 88.915, 147.941 87.661 C 147.885 85.583, 147.836 85.574, 146.691 87.412 C 146.036 88.464, 144.713 90.151, 143.750 91.162 C 142.626 92.343, 140.582 93, 138.035 93 C 135.139 93, 133.791 92.479, 133.035 91.066 C 132.466 90.002, 132 87.302, 132 85.066 C 132 81.540, 132.299 80.989, 134.250 80.918 C 135.488 80.873, 139.088 80.905, 142.250 80.989 C 147.503 81.128, 148 80.957, 148 79.005 C 148 77.830, 147.537 76.003, 146.970 74.945 C 146.404 73.886, 144.626 72.341, 143.020 71.510 C 141.414 70.680, 138.839 70.007, 137.300 70.015 C 135.760 70.023, 133.389 70.592, 132.030 71.279 M 193.500 70.790 C 192.400 71.015, 190.488 72.133, 189.250 73.274 L 187 75.349 187 73.174 C 187 71.205, 186.480 71, 181.500 71 C 178.475 71, 176 71.450, 176 72 C 176 72.550, 176.855 73, 177.899 73 C 179.416 73, 179.869 73.866, 180.149 77.299 C 180.342 79.663, 180.346 84.163, 180.157 87.299 C 179.913 91.371, 179.413 93, 178.407 93 C 177.633 93, 177 93.450, 177 94 C 177 94.571, 180 95, 184 95 C 188 95, 191 94.571, 191 94 C 191 93.450, 190.100 93, 189 93 C 187.213 93, 187 92.334, 187.002 86.750 C 187.003 82.804, 187.648 79.210, 188.752 77 C 189.886 74.729, 191.338 73.381, 192.887 73.163 C 194.200 72.977, 195.655 73.427, 196.122 74.163 C 196.588 74.898, 196.976 78.726, 196.985 82.668 C 196.993 86.611, 196.727 90.548, 196.393 91.418 C 196.059 92.288, 195.159 93, 194.393 93 C 193.627 93, 193 93.450, 193 94 C 193 94.571, 196 95, 200 95 C 204 95, 207 94.571, 207 94 C 207 93.450, 206.100 93, 205 93 C 203.134 93, 203 92.333, 203 83.059 C 203 77.301, 202.565 72.849, 201.967 72.480 C 201.400 72.129, 199.712 71.513, 198.217 71.111 C 196.723 70.709, 194.600 70.564, 193.500 70.790 M 349.401 71.375 C 347.696 72.146, 345.333 74.343, 344.151 76.256 C 342.968 78.170, 342 81.205, 342 83 C 342 84.795, 342.909 87.734, 344.019 89.531 C 345.231 91.491, 347.659 93.447, 350.089 94.419 C 353.254 95.685, 354.958 95.819, 357.885 95.031 C 359.945 94.476, 362.558 93.005, 363.692 91.761 C 364.826 90.518, 366.303 87.786, 366.974 85.691 C 367.913 82.761, 367.924 81.231, 367.024 79.059 C 366.381 77.506, 364.588 75.021, 363.039 73.537 C 361.286 71.858, 358.765 70.676, 356.362 70.407 C 354.235 70.168, 351.107 70.604, 349.401 71.375 M 391.500 70.790 C 390.400 71.015, 388.488 72.133, 387.250 73.274 L 385 75.349 385 73.174 C 385 71.205, 384.480 71, 379.500 71 C 376.475 71, 374 71.450, 374 72 C 374 72.550, 374.900 73, 376 73 C 377.867 73, 378 73.667, 378 83 C 378 92.333, 377.867 93, 376 93 C 374.900 93, 374 93.450, 374 94 C 374 94.578, 377.167 95, 381.500 95 C 385.833 95, 389 94.578, 389 94 C 389 93.450, 388.100 93, 387 93 C 385.213 93, 385 92.334, 385.002 86.750 C 385.003 82.804, 385.648 79.210, 386.752 77 C 388.051 74.400, 389.143 73.500, 391 73.500 C 393.476 73.500, 393.503 73.593, 393.786 83.250 C 394.023 91.312, 393.817 93, 392.595 93 C 391.783 93, 390.840 93.450, 390.500 94 C 390.109 94.633, 392.656 95, 397.441 95 C 401.814 95, 405 94.578, 405 94 C 405 93.450, 404.100 93, 403 93 C 401.145 93, 400.999 92.328, 400.985 83.750 C 400.976 78.662, 400.607 73.929, 400.164 73.232 C 399.722 72.534, 398.041 71.607, 396.430 71.172 C 394.818 70.736, 392.600 70.564, 391.500 70.790 M 154.500 72 C 154.840 72.550, 155.991 73, 157.059 73 C 158.851 73, 159 73.768, 159 83 C 159 92.333, 158.867 93, 157 93 C 155.900 93, 155 93.450, 155 94 C 155 94.578, 158.167 95, 162.500 95 C 166.833 95, 170 94.578, 170 94 C 170 93.450, 169.100 93, 168 93 C 166.121 93, 166 92.333, 166 82 L 166 71 159.941 71 C 156.156 71, 154.114 71.375, 154.500 72 M 239.750 71.706 C 241.894 72.119, 242 72.585, 242 81.570 C 242 89.839, 242.260 91.260, 244.116 93.116 C 245.801 94.801, 247.040 95.124, 250.194 94.701 C 252.373 94.409, 255.020 93.387, 256.078 92.430 C 257.918 90.765, 258 90.782, 258 92.845 C 258 94.794, 258.479 94.979, 263 94.783 C 265.750 94.663, 268 94.213, 268 93.783 C 268 93.352, 267.100 93, 266 93 C 264.121 93, 264 92.333, 264 82 L 264 71 258.250 71.100 C 254.252 71.169, 253.262 71.410, 255 71.890 C 257.221 72.504, 257.535 73.190, 257.813 78.041 C 257.985 81.043, 257.854 84.948, 257.523 86.718 C 257.192 88.488, 256.232 90.625, 255.389 91.468 C 254.547 92.311, 252.817 93, 251.545 93 C 249.993 93, 249.035 92.261, 248.630 90.750 C 248.299 89.513, 248.021 84.563, 248.014 79.750 L 248 71 242.750 71.136 C 239.863 71.211, 238.512 71.467, 239.750 71.706 M 276.750 71.706 C 278.912 72.122, 279 72.548, 279 82.570 C 279 92.333, 278.872 93, 277 93 C 275.900 93, 275 93.460, 275 94.021 C 275 94.639, 277.967 94.985, 282.500 94.897 C 286.625 94.818, 290 94.358, 290 93.876 C 290 93.394, 289.100 93, 288 93 C 286.121 93, 286 92.333, 286 82 L 286 71 280.250 71.136 C 277.087 71.211, 275.512 71.467, 276.750 71.706 M 322 71.893 C 324.432 72.567, 324.508 72.862, 324.785 82.793 C 325.056 92.485, 324.967 93, 323.035 93 C 321.916 93, 321 93.450, 321 94 C 321 94.571, 323.980 95, 327.941 95 C 331.759 95, 335.160 94.550, 335.500 94 C 335.847 93.439, 335.060 93, 333.706 93 C 331.503 93, 331.291 92.591, 331.248 88.250 C 331.222 85.638, 331.156 80.688, 331.100 77.250 L 331 71 325.250 71.100 C 321.242 71.169, 320.257 71.409, 322 71.893 M 132.989 74.020 C 132.361 75.195, 132.092 76.796, 132.392 77.578 C 132.740 78.487, 134.415 79, 137.032 79 C 141.049 79, 141.121 78.939, 140.813 75.750 C 140.539 72.908, 140.100 72.461, 137.316 72.192 C 134.898 71.957, 133.858 72.396, 132.989 74.020 M 350.398 73.165 C 350.002 73.805, 349.504 77.518, 349.290 81.415 C 349.036 86.057, 349.358 89.362, 350.224 91 C 351.015 92.495, 352.592 93.622, 354.147 93.804 C 355.579 93.972, 357.480 93.377, 358.374 92.483 C 359.586 91.271, 360 88.949, 360 83.363 C 360 79.241, 359.534 74.998, 358.965 73.934 C 358.252 72.603, 356.868 72, 354.524 72 C 352.651 72, 350.794 72.524, 350.398 73.165" stroke="none" fill="#be8b6d" fill-rule="evenodd"/></svg>