<svg xmlns="http://www.w3.org/2000/svg" width="449" height="150" viewBox="0 0 449 150" version="1.1"><path d="M 69.109 33.151 C 58.939 36.931, 38.752 46.596, 37.967 48.061 C 37.417 49.089, 37 60.797, 37 75.212 C 37 95.791, 37.274 100.946, 38.457 102.636 C 40.224 105.158, 47.610 107.381, 52.376 106.825 C 55.640 106.444, 55.895 106.625, 56.482 109.757 C 57.340 114.331, 61.853 116.991, 68.763 116.996 C 73.066 116.999, 76.804 115.786, 89.263 110.339 C 97.643 106.676, 105.063 103.246, 105.750 102.717 C 107.613 101.283, 107.545 50.697, 105.678 49.147 C 104.679 48.319, 100.248 49.780, 87.574 55.117 C 70.486 62.313, 69.261 62.566, 62.179 60.360 C 60.842 59.943, 60.895 60.159, 62.441 61.418 C 66.431 64.669, 72.475 63.466, 89.013 56.127 C 97.531 52.347, 104.838 49.449, 105.250 49.686 C 105.662 49.924, 106 61.724, 106 75.908 L 106 101.699 90.101 108.396 C 71.005 116.440, 68.820 116.899, 62.639 114.165 L 58 112.112 58 85.679 C 58 65.751, 58.308 58.990, 59.250 58.209 C 60.518 57.159, 90.289 44, 91.397 44 C 91.729 44, 92 45.575, 92 47.500 C 92 49.425, 92.477 51, 93.060 51 C 93.674 51, 93.990 49.421, 93.810 47.250 C 93.545 44.047, 93.119 43.456, 90.886 43.197 C 89.265 43.009, 87.849 41.964, 87.158 40.447 C 86.545 39.101, 85.612 38, 85.084 38 C 84.557 38, 76.579 41.218, 67.355 45.151 C 51.402 51.953, 50.387 52.250, 46.551 51.226 C 41.868 49.976, 40.469 50.468, 44.426 51.972 C 49.429 53.874, 53.123 53.028, 68.302 46.500 C 76.616 42.925, 83.999 40, 84.709 40 C 85.419 40, 85.992 41.013, 85.981 42.250 C 85.965 44.183, 84.123 45.274, 72.892 50 C 65.107 53.276, 59.049 56.464, 57.911 57.885 C 56.158 60.072, 56 62.116, 56 82.590 L 56 104.909 52.639 105.540 C 48.650 106.288, 42.513 104.774, 39.882 102.393 C 38.132 100.810, 38 98.882, 38 75 C 38 51.764, 38.167 49.169, 39.750 47.830 C 42.514 45.492, 71.242 33.839, 72.087 34.713 C 72.504 35.146, 73.038 36.850, 73.273 38.500 C 73.622 40.950, 73.728 40.740, 73.850 37.357 C 74.016 32.779, 72.863 31.756, 69.109 33.151 M 161.040 56.452 C 160.377 57.251, 159.991 58.713, 160.181 59.702 C 160.674 62.262, 167.326 62.262, 167.819 59.702 C 168.567 55.818, 163.559 53.417, 161.040 56.452 M 281.200 56.200 C 278.190 59.210, 281.757 63.847, 286.038 62.488 C 288.485 61.711, 288.772 56.510, 286.418 55.607 C 284.044 54.696, 282.532 54.868, 281.200 56.200 M 327.200 56.200 C 324.013 59.387, 327.963 64.161, 332 62 C 335.406 60.177, 333.927 55, 330 55 C 329.120 55, 327.860 55.540, 327.200 56.200 M 219.667 64.667 C 219.300 65.033, 219 66.577, 219 68.097 C 219 70.165, 218.434 70.972, 216.750 71.303 L 214.500 71.746 216.750 72.490 C 218.877 73.193, 219 73.762, 219 82.917 C 219 89.115, 219.432 93.032, 220.200 93.800 C 222.381 95.981, 229.403 95.265, 231.901 92.605 C 233.139 91.288, 233.718 89.944, 233.189 89.617 C 232.659 89.290, 231.671 89.692, 230.991 90.511 C 230.311 91.330, 228.910 92, 227.878 92 C 226.174 92, 226 91.128, 226 82.566 C 226 73.223, 226.024 73.130, 228.531 72.816 C 229.923 72.642, 231.027 72.050, 230.985 71.500 C 230.943 70.950, 229.804 70.645, 228.454 70.822 C 226.247 71.111, 226 70.784, 226 67.572 C 226 64.317, 225.749 64, 223.167 64 C 221.608 64, 220.033 64.300, 219.667 64.667 M 302.667 64.667 C 302.300 65.033, 302 66.608, 302 68.167 C 302 70.333, 301.529 71, 300 71 C 298.900 71, 298 71.450, 298 72 C 298 72.550, 298.900 73, 300 73 C 301.864 73, 302 73.667, 302 82.800 C 302 89.089, 302.430 93.030, 303.200 93.800 C 305.104 95.704, 312.427 95.291, 314.345 93.171 C 316.139 91.189, 316.539 89, 315.107 89 C 314.616 89, 313.955 89.675, 313.638 90.500 C 313.322 91.325, 312.149 92, 311.031 92 C 309.133 92, 309 91.382, 309 82.566 C 309 73.223, 309.024 73.130, 311.531 72.816 C 312.923 72.642, 314.027 72.050, 313.985 71.500 C 313.943 70.950, 312.804 70.645, 311.454 70.822 C 309.247 71.111, 309 70.784, 309 67.572 C 309 64.317, 308.749 64, 306.167 64 C 304.608 64, 303.033 64.300, 302.667 64.667 M 134.452 71.406 C 132.776 72.136, 130.627 73.920, 129.677 75.371 C 123.683 84.519, 129.177 95, 139.967 95 C 143.410 95, 144.737 94.422, 147.099 91.894 C 150.089 88.694, 150.746 87, 149 87 C 148.450 87, 148 87.605, 148 88.345 C 148 90.454, 144.833 92.769, 140.969 93.486 C 135.927 94.421, 133.778 91.843, 134.191 85.356 L 134.500 80.500 142.250 80.608 C 149.268 80.706, 150 80.534, 150 78.792 C 150 75.554, 148.003 72.899, 144.452 71.415 C 140.317 69.688, 138.401 69.686, 134.452 71.406 M 195.500 70.716 C 194.400 70.982, 192.488 72.133, 191.250 73.274 L 189 75.349 189 73.174 C 189 71.205, 188.480 71, 183.500 71 C 180.475 71, 178 71.450, 178 72 C 178 72.550, 178.855 73, 179.899 73 C 181.416 73, 181.869 73.866, 182.149 77.299 C 182.797 85.244, 181.937 93, 180.407 93 C 179.633 93, 179 93.450, 179 94 C 179 94.571, 182 95, 186 95 C 190 95, 193 94.571, 193 94 C 193 93.450, 192.100 93, 191 93 C 189.213 93, 189 92.334, 189.002 86.750 C 189.003 79.153, 191.384 73.658, 194.887 73.163 C 198.218 72.691, 198.967 74.429, 198.985 82.668 C 199.002 90.707, 198.427 93, 196.393 93 C 195.627 93, 195 93.450, 195 94 C 195 94.571, 198 95, 202 95 C 206 95, 209 94.571, 209 94 C 209 93.450, 208.357 93, 207.572 93 C 206.062 93, 204.598 85.100, 205.060 79.448 C 205.509 73.968, 205.045 72.917, 201.532 71.449 C 199.625 70.652, 197.937 70.052, 197.782 70.116 C 197.627 70.180, 196.600 70.450, 195.500 70.716 M 351.401 71.375 C 347.543 73.120, 344 78.685, 344 83 C 344 90.831, 352.257 97.085, 359.885 95.031 C 364.405 93.814, 367.337 90.801, 368.974 85.691 C 372.031 76.149, 360.899 67.080, 351.401 71.375 M 135.571 72.571 C 134.707 73.436, 134 75.236, 134 76.571 C 134 78.786, 134.400 79, 138.531 79 C 143.819 79, 145.077 77.292, 142.587 73.492 C 140.724 70.649, 137.869 70.274, 135.571 72.571 M 158 71.863 C 160.430 72.566, 160.508 72.871, 160.785 82.793 C 161.056 92.485, 160.967 93, 159.035 93 C 157.916 93, 157 93.450, 157 94 C 157 94.578, 160.167 95, 164.500 95 C 168.833 95, 172 94.578, 172 94 C 172 93.450, 171.115 93, 170.034 93 C 168.218 93, 168.046 92.175, 167.784 82.250 L 167.500 71.500 161.500 71.320 C 157.660 71.205, 156.400 71.401, 158 71.863 M 239.500 72 C 239.840 72.550, 240.991 73, 242.059 73 C 243.842 73, 244 73.761, 244 82.345 C 244 90.128, 244.306 91.967, 245.829 93.345 C 248.503 95.766, 254.852 95.487, 257.686 92.826 L 260 90.651 260 92.826 C 260 94.795, 260.520 95, 265.500 95 C 270.886 95, 273.195 93.451, 268.750 92.820 C 266.597 92.514, 266.488 92.038, 266.216 81.750 L 265.932 71 260.466 71 C 257.460 71, 255 71.450, 255 72 C 255 72.550, 256.108 73, 257.462 73 C 259.872 73, 259.919 73.153, 259.712 80.296 C 259.465 88.786, 257.281 93.323, 253.687 92.811 C 251.613 92.516, 251.485 91.942, 251.216 81.750 L 250.932 71 244.907 71 C 241.145 71, 239.114 71.376, 239.500 72 M 276.500 72 C 276.840 72.550, 277.991 73, 279.059 73 C 280.851 73, 281 73.768, 281 83 C 281 92.333, 280.867 93, 279 93 C 277.900 93, 277 93.450, 277 94 C 277 94.578, 280.167 95, 284.500 95 C 288.833 95, 292 94.578, 292 94 C 292 93.450, 291.100 93, 290 93 C 288.121 93, 288 92.333, 288 82 L 288 71 281.941 71 C 278.156 71, 276.114 71.375, 276.500 72 M 322 71.950 C 322 72.528, 323.125 73, 324.500 73 L 327 73 327 83 C 327 92.333, 326.867 93, 325 93 C 323.900 93, 323 93.450, 323 94 C 323 94.571, 325.980 95, 329.941 95 C 333.759 95, 337.160 94.550, 337.500 94 C 337.840 93.450, 337.207 93, 336.093 93 C 334.202 93, 334.049 92.284, 333.784 82.250 L 333.500 71.500 327.750 71.200 C 324.211 71.015, 322 71.304, 322 71.950 M 376 72 C 376 72.550, 376.900 73, 378 73 C 379.867 73, 380 73.667, 380 83 C 380 91.040, 379.718 93, 378.559 93 C 377.766 93, 376.840 93.450, 376.500 94 C 376.109 94.633, 378.656 95, 383.441 95 C 387.814 95, 391 94.578, 391 94 C 391 93.450, 390.052 93, 388.894 93 C 386.900 93, 386.807 92.579, 387.147 85.102 C 387.527 76.725, 389.366 73, 393.120 73 C 395.826 73, 397 76.131, 397 83.352 C 397 90.729, 396.386 93, 394.393 93 C 393.627 93, 393 93.450, 393 94 C 393 94.572, 396.020 95, 400.059 95 C 404.510 95, 406.890 94.631, 406.500 94 C 406.160 93.450, 405.234 93, 404.441 93 C 403.289 93, 403 91.125, 403 83.655 C 403 75.872, 402.694 74.033, 401.171 72.655 C 398.497 70.234, 392.148 70.513, 389.314 73.174 L 387 75.349 387 73.174 C 387 71.205, 386.480 71, 381.500 71 C 378.475 71, 376 71.450, 376 72 M 353 72.979 C 350.964 74.266, 350.861 89.923, 352.872 92.346 C 354.607 94.436, 358.380 94.477, 360.429 92.429 C 362.274 90.584, 362.664 77.110, 360.965 73.934 C 359.851 71.854, 355.589 71.342, 353 72.979" stroke="none" fill="#b68567" fill-rule="evenodd"/><path d="M 0 75.002 L 0 150.004 224.750 149.752 L 449.500 149.500 449.756 74.750 L 450.013 -0 225.006 -0 L 0 0 0 75.002 M 0.475 75.500 C 0.475 116.750, 0.598 133.771, 0.750 113.324 C 0.901 92.877, 0.901 59.127, 0.750 38.324 C 0.599 17.521, 0.475 34.250, 0.475 75.500 M 69.109 33.151 C 58.939 36.931, 38.752 46.596, 37.967 48.061 C 37.417 49.089, 37 60.797, 37 75.212 C 37 95.791, 37.274 100.946, 38.457 102.636 C 40.224 105.158, 47.610 107.381, 52.376 106.825 C 55.640 106.444, 55.895 106.625, 56.482 109.757 C 57.340 114.331, 61.853 116.991, 68.763 116.996 C 73.066 116.999, 76.804 115.786, 89.263 110.339 C 97.643 106.676, 105.063 103.246, 105.750 102.717 C 107.613 101.283, 107.545 50.697, 105.678 49.147 C 104.679 48.319, 100.248 49.780, 87.574 55.117 C 70.486 62.313, 69.261 62.566, 62.179 60.360 C 60.842 59.943, 60.895 60.159, 62.441 61.418 C 66.431 64.669, 72.475 63.466, 89.013 56.127 C 97.531 52.347, 104.838 49.449, 105.250 49.686 C 105.662 49.924, 106 61.724, 106 75.908 L 106 101.699 90.101 108.396 C 71.005 116.440, 68.820 116.899, 62.639 114.165 L 58 112.112 58 85.679 C 58 65.751, 58.308 58.990, 59.250 58.209 C 60.518 57.159, 90.289 44, 91.397 44 C 91.729 44, 92 45.575, 92 47.500 C 92 49.425, 92.477 51, 93.060 51 C 93.674 51, 93.990 49.421, 93.810 47.250 C 93.545 44.047, 93.119 43.456, 90.886 43.197 C 89.265 43.009, 87.849 41.964, 87.158 40.447 C 86.545 39.101, 85.612 38, 85.084 38 C 84.557 38, 76.579 41.218, 67.355 45.151 C 51.402 51.953, 50.387 52.250, 46.551 51.226 C 41.868 49.976, 40.469 50.468, 44.426 51.972 C 49.429 53.874, 53.123 53.028, 68.302 46.500 C 76.616 42.925, 83.999 40, 84.709 40 C 85.419 40, 85.992 41.013, 85.981 42.250 C 85.965 44.183, 84.123 45.274, 72.892 50 C 65.107 53.276, 59.049 56.464, 57.911 57.885 C 56.158 60.072, 56 62.116, 56 82.590 L 56 104.909 52.639 105.540 C 48.650 106.288, 42.513 104.774, 39.882 102.393 C 38.132 100.810, 38 98.882, 38 75 C 38 51.764, 38.167 49.169, 39.750 47.830 C 42.514 45.492, 71.242 33.839, 72.087 34.713 C 72.504 35.146, 73.038 36.850, 73.273 38.500 C 73.622 40.950, 73.728 40.740, 73.850 37.357 C 74.016 32.779, 72.863 31.756, 69.109 33.151 M 161.040 56.452 C 160.377 57.251, 159.991 58.713, 160.181 59.702 C 160.674 62.262, 167.326 62.262, 167.819 59.702 C 168.567 55.818, 163.559 53.417, 161.040 56.452 M 281.200 56.200 C 278.190 59.210, 281.757 63.847, 286.038 62.488 C 288.485 61.711, 288.772 56.510, 286.418 55.607 C 284.044 54.696, 282.532 54.868, 281.200 56.200 M 327.200 56.200 C 324.013 59.387, 327.963 64.161, 332 62 C 335.406 60.177, 333.927 55, 330 55 C 329.120 55, 327.860 55.540, 327.200 56.200 M 219.667 64.667 C 219.300 65.033, 219 66.577, 219 68.097 C 219 70.165, 218.434 70.972, 216.750 71.303 L 214.500 71.746 216.750 72.490 C 218.877 73.193, 219 73.762, 219 82.917 C 219 89.115, 219.432 93.032, 220.200 93.800 C 222.381 95.981, 229.403 95.265, 231.901 92.605 C 233.139 91.288, 233.718 89.944, 233.189 89.617 C 232.659 89.290, 231.671 89.692, 230.991 90.511 C 230.311 91.330, 228.910 92, 227.878 92 C 226.174 92, 226 91.128, 226 82.566 C 226 73.223, 226.024 73.130, 228.531 72.816 C 229.923 72.642, 231.027 72.050, 230.985 71.500 C 230.943 70.950, 229.804 70.645, 228.454 70.822 C 226.247 71.111, 226 70.784, 226 67.572 C 226 64.317, 225.749 64, 223.167 64 C 221.608 64, 220.033 64.300, 219.667 64.667 M 302.667 64.667 C 302.300 65.033, 302 66.608, 302 68.167 C 302 70.333, 301.529 71, 300 71 C 298.900 71, 298 71.450, 298 72 C 298 72.550, 298.900 73, 300 73 C 301.864 73, 302 73.667, 302 82.800 C 302 89.089, 302.430 93.030, 303.200 93.800 C 305.104 95.704, 312.427 95.291, 314.345 93.171 C 316.139 91.189, 316.539 89, 315.107 89 C 314.616 89, 313.955 89.675, 313.638 90.500 C 313.322 91.325, 312.149 92, 311.031 92 C 309.133 92, 309 91.382, 309 82.566 C 309 73.223, 309.024 73.130, 311.531 72.816 C 312.923 72.642, 314.027 72.050, 313.985 71.500 C 313.943 70.950, 312.804 70.645, 311.454 70.822 C 309.247 71.111, 309 70.784, 309 67.572 C 309 64.317, 308.749 64, 306.167 64 C 304.608 64, 303.033 64.300, 302.667 64.667 M 134.452 71.406 C 132.776 72.136, 130.627 73.920, 129.677 75.371 C 123.683 84.519, 129.177 95, 139.967 95 C 143.410 95, 144.737 94.422, 147.099 91.894 C 150.089 88.694, 150.746 87, 149 87 C 148.450 87, 148 87.605, 148 88.345 C 148 90.454, 144.833 92.769, 140.969 93.486 C 135.927 94.421, 133.778 91.843, 134.191 85.356 L 134.500 80.500 142.250 80.608 C 149.268 80.706, 150 80.534, 150 78.792 C 150 75.554, 148.003 72.899, 144.452 71.415 C 140.317 69.688, 138.401 69.686, 134.452 71.406 M 195.500 70.716 C 194.400 70.982, 192.488 72.133, 191.250 73.274 L 189 75.349 189 73.174 C 189 71.205, 188.480 71, 183.500 71 C 180.475 71, 178 71.450, 178 72 C 178 72.550, 178.855 73, 179.899 73 C 181.416 73, 181.869 73.866, 182.149 77.299 C 182.797 85.244, 181.937 93, 180.407 93 C 179.633 93, 179 93.450, 179 94 C 179 94.571, 182 95, 186 95 C 190 95, 193 94.571, 193 94 C 193 93.450, 192.100 93, 191 93 C 189.213 93, 189 92.334, 189.002 86.750 C 189.003 79.153, 191.384 73.658, 194.887 73.163 C 198.218 72.691, 198.967 74.429, 198.985 82.668 C 199.002 90.707, 198.427 93, 196.393 93 C 195.627 93, 195 93.450, 195 94 C 195 94.571, 198 95, 202 95 C 206 95, 209 94.571, 209 94 C 209 93.450, 208.357 93, 207.572 93 C 206.062 93, 204.598 85.100, 205.060 79.448 C 205.509 73.968, 205.045 72.917, 201.532 71.449 C 199.625 70.652, 197.937 70.052, 197.782 70.116 C 197.627 70.180, 196.600 70.450, 195.500 70.716 M 351.401 71.375 C 347.543 73.120, 344 78.685, 344 83 C 344 90.831, 352.257 97.085, 359.885 95.031 C 364.405 93.814, 367.337 90.801, 368.974 85.691 C 372.031 76.149, 360.899 67.080, 351.401 71.375 M 135.571 72.571 C 134.707 73.436, 134 75.236, 134 76.571 C 134 78.786, 134.400 79, 138.531 79 C 143.819 79, 145.077 77.292, 142.587 73.492 C 140.724 70.649, 137.869 70.274, 135.571 72.571 M 158 71.863 C 160.430 72.566, 160.508 72.871, 160.785 82.793 C 161.056 92.485, 160.967 93, 159.035 93 C 157.916 93, 157 93.450, 157 94 C 157 94.578, 160.167 95, 164.500 95 C 168.833 95, 172 94.578, 172 94 C 172 93.450, 171.115 93, 170.034 93 C 168.218 93, 168.046 92.175, 167.784 82.250 L 167.500 71.500 161.500 71.320 C 157.660 71.205, 156.400 71.401, 158 71.863 M 239.500 72 C 239.840 72.550, 240.991 73, 242.059 73 C 243.842 73, 244 73.761, 244 82.345 C 244 90.128, 244.306 91.967, 245.829 93.345 C 248.503 95.766, 254.852 95.487, 257.686 92.826 L 260 90.651 260 92.826 C 260 94.795, 260.520 95, 265.500 95 C 270.886 95, 273.195 93.451, 268.750 92.820 C 266.597 92.514, 266.488 92.038, 266.216 81.750 L 265.932 71 260.466 71 C 257.460 71, 255 71.450, 255 72 C 255 72.550, 256.108 73, 257.462 73 C 259.872 73, 259.919 73.153, 259.712 80.296 C 259.465 88.786, 257.281 93.323, 253.687 92.811 C 251.613 92.516, 251.485 91.942, 251.216 81.750 L 250.932 71 244.907 71 C 241.145 71, 239.114 71.376, 239.500 72 M 276.500 72 C 276.840 72.550, 277.991 73, 279.059 73 C 280.851 73, 281 73.768, 281 83 C 281 92.333, 280.867 93, 279 93 C 277.900 93, 277 93.450, 277 94 C 277 94.578, 280.167 95, 284.500 95 C 288.833 95, 292 94.578, 292 94 C 292 93.450, 291.100 93, 290 93 C 288.121 93, 288 92.333, 288 82 L 288 71 281.941 71 C 278.156 71, 276.114 71.375, 276.500 72 M 322 71.950 C 322 72.528, 323.125 73, 324.500 73 L 327 73 327 83 C 327 92.333, 326.867 93, 325 93 C 323.900 93, 323 93.450, 323 94 C 323 94.571, 325.980 95, 329.941 95 C 333.759 95, 337.160 94.550, 337.500 94 C 337.840 93.450, 337.207 93, 336.093 93 C 334.202 93, 334.049 92.284, 333.784 82.250 L 333.500 71.500 327.750 71.200 C 324.211 71.015, 322 71.304, 322 71.950 M 376 72 C 376 72.550, 376.900 73, 378 73 C 379.867 73, 380 73.667, 380 83 C 380 91.040, 379.718 93, 378.559 93 C 377.766 93, 376.840 93.450, 376.500 94 C 376.109 94.633, 378.656 95, 383.441 95 C 387.814 95, 391 94.578, 391 94 C 391 93.450, 390.052 93, 388.894 93 C 386.900 93, 386.807 92.579, 387.147 85.102 C 387.527 76.725, 389.366 73, 393.120 73 C 395.826 73, 397 76.131, 397 83.352 C 397 90.729, 396.386 93, 394.393 93 C 393.627 93, 393 93.450, 393 94 C 393 94.572, 396.020 95, 400.059 95 C 404.510 95, 406.890 94.631, 406.500 94 C 406.160 93.450, 405.234 93, 404.441 93 C 403.289 93, 403 91.125, 403 83.655 C 403 75.872, 402.694 74.033, 401.171 72.655 C 398.497 70.234, 392.148 70.513, 389.314 73.174 L 387 75.349 387 73.174 C 387 71.205, 386.480 71, 381.500 71 C 378.475 71, 376 71.450, 376 72 M 353 72.979 C 350.964 74.266, 350.861 89.923, 352.872 92.346 C 354.607 94.436, 358.380 94.477, 360.429 92.429 C 362.274 90.584, 362.664 77.110, 360.965 73.934 C 359.851 71.854, 355.589 71.342, 353 72.979" stroke="none" fill="#2c344b" fill-rule="evenodd"/></svg>